<mxfile host="Electron" agent="Mozilla/5.0 (Windows NT 10.0; Win64; x64) AppleWebKit/537.36 (KHTML, like Gecko) draw.io/24.7.8 Chrome/128.0.6613.36 Electron/32.0.1 Safari/537.36" version="24.7.8">
  <diagram name="Page-1" id="cdmFDygPykk_E53_S-d2">
    <mxGraphModel dx="989" dy="583" grid="1" gridSize="10" guides="1" tooltips="1" connect="1" arrows="1" fold="1" page="1" pageScale="1" pageWidth="850" pageHeight="1100" math="0" shadow="0">
      <root>
        <mxCell id="0" />
        <mxCell id="1" parent="0" />
        <mxCell id="TrRyDT_7oQcnh5Yj901O-13" style="edgeStyle=orthogonalEdgeStyle;rounded=0;orthogonalLoop=1;jettySize=auto;html=1;exitX=0;exitY=0.75;exitDx=0;exitDy=0;entryX=0.5;entryY=0;entryDx=0;entryDy=0;" edge="1" parent="1" source="TrRyDT_7oQcnh5Yj901O-1" target="TrRyDT_7oQcnh5Yj901O-2">
          <mxGeometry relative="1" as="geometry" />
        </mxCell>
        <mxCell id="TrRyDT_7oQcnh5Yj901O-16" style="edgeStyle=orthogonalEdgeStyle;rounded=0;orthogonalLoop=1;jettySize=auto;html=1;exitX=1;exitY=0.25;exitDx=0;exitDy=0;entryX=0.75;entryY=0;entryDx=0;entryDy=0;" edge="1" parent="1" source="TrRyDT_7oQcnh5Yj901O-1" target="TrRyDT_7oQcnh5Yj901O-3">
          <mxGeometry relative="1" as="geometry" />
        </mxCell>
        <mxCell id="TrRyDT_7oQcnh5Yj901O-1" value="&lt;font style=&quot;font-size: 15px;&quot;&gt;Implementálás megváltoztatása&lt;/font&gt;" style="rounded=1;whiteSpace=wrap;html=1;" vertex="1" parent="1">
          <mxGeometry x="360" y="240" width="120" height="60" as="geometry" />
        </mxCell>
        <mxCell id="TrRyDT_7oQcnh5Yj901O-14" style="edgeStyle=orthogonalEdgeStyle;rounded=0;orthogonalLoop=1;jettySize=auto;html=1;exitX=1;exitY=0.25;exitDx=0;exitDy=0;entryX=0;entryY=0.25;entryDx=0;entryDy=0;" edge="1" parent="1" source="TrRyDT_7oQcnh5Yj901O-2" target="TrRyDT_7oQcnh5Yj901O-3">
          <mxGeometry relative="1" as="geometry" />
        </mxCell>
        <mxCell id="TrRyDT_7oQcnh5Yj901O-18" style="edgeStyle=orthogonalEdgeStyle;rounded=0;orthogonalLoop=1;jettySize=auto;html=1;exitX=0.25;exitY=0;exitDx=0;exitDy=0;entryX=0;entryY=0.25;entryDx=0;entryDy=0;" edge="1" parent="1" source="TrRyDT_7oQcnh5Yj901O-2" target="TrRyDT_7oQcnh5Yj901O-1">
          <mxGeometry relative="1" as="geometry" />
        </mxCell>
        <mxCell id="TrRyDT_7oQcnh5Yj901O-2" value="&lt;font style=&quot;font-size: 15px;&quot;&gt;Optimalizációs lehetőség&lt;/font&gt;" style="rounded=1;whiteSpace=wrap;html=1;" vertex="1" parent="1">
          <mxGeometry x="270" y="340" width="120" height="60" as="geometry" />
        </mxCell>
        <mxCell id="TrRyDT_7oQcnh5Yj901O-15" style="edgeStyle=orthogonalEdgeStyle;rounded=0;orthogonalLoop=1;jettySize=auto;html=1;exitX=0.5;exitY=0;exitDx=0;exitDy=0;entryX=1;entryY=0.75;entryDx=0;entryDy=0;" edge="1" parent="1" source="TrRyDT_7oQcnh5Yj901O-3" target="TrRyDT_7oQcnh5Yj901O-1">
          <mxGeometry relative="1" as="geometry" />
        </mxCell>
        <mxCell id="TrRyDT_7oQcnh5Yj901O-17" style="edgeStyle=orthogonalEdgeStyle;rounded=0;orthogonalLoop=1;jettySize=auto;html=1;exitX=0;exitY=0.75;exitDx=0;exitDy=0;entryX=1;entryY=0.75;entryDx=0;entryDy=0;" edge="1" parent="1" source="TrRyDT_7oQcnh5Yj901O-3" target="TrRyDT_7oQcnh5Yj901O-2">
          <mxGeometry relative="1" as="geometry" />
        </mxCell>
        <mxCell id="TrRyDT_7oQcnh5Yj901O-3" value="&lt;font style=&quot;font-size: 15px;&quot;&gt;Funkcionalitás bővítése&lt;/font&gt;" style="rounded=1;whiteSpace=wrap;html=1;" vertex="1" parent="1">
          <mxGeometry x="450" y="340" width="120" height="60" as="geometry" />
        </mxCell>
      </root>
    </mxGraphModel>
  </diagram>
</mxfile>
